<svg xmlns="http://www.w3.org/2000/svg" viewBox="0 0 1622.83 984.39" width="1622.83" height="984.39" style="background-color: transparent;"><defs><style>@import url('https://fonts.googleapis.com/css2?family=Caveat+Brush&amp;family=Source+Code+Pro&amp;family=Source+Sans+Pro&amp;family=Crimson+Pro&amp;display=block');</style></defs><g text-align="center" text-anchor="middle" transform="translate(390.10, 393.50) rotate(0.00, 107.70, 29.59)"><g id="a800c964-2096-45d0-28cd-dbe0059959b8_svg" class="tl-centered-g"><path d="M125.04,59.03 Q112.31,58.90 104.32,58.93 T87.93,59.01 71.03,59.08 53.99,59.16 36.91,59.23 19.80,59.30 7.11,57.60 1.82,52.49 0.47,45.57 0.30,38.50 0.29,31.46 0.15,24.43 -0.07,17.39 -0.27,10.29 1.49,3.79 10.46,0.10 25.74,-0.76 42.33,-0.82 59.29,-0.73 76.35,-0.60 93.44,-0.46 110.54,-0.42 127.64,-0.50 144.74,-0.58 161.84,-0.65 178.93,-0.72 196.06,-0.80 208.76,0.91 214.04,6.01 215.37,12.94 215.53,20.01 215.52,27.05 215.64,34.09 215.83,41.13 216.01,48.23 214.24,54.73 205.27,58.42 190.00,59.28 173.42,59.33 156.47,59.24 139.42,59.11 122.34,58.97 105.26,58.94 85.25,59.00 73.59,59.00 73.22,58.88 72.91,58.64 72.69,58.32 72.59,57.95 72.61,57.56 72.76,57.20 73.01,56.90 73.34,56.70 73.72,56.62 74.11,56.66 74.46,56.83 74.74,57.09 74.92,57.44 74.98,57.82 74.92,58.20 74.74,58.55 74.46,58.81 74.10,58.98 73.72,59.02 73.34,58.93 73.00,58.73 72.75,58.44 72.61,58.07 72.59,57.69 72.70,57.31 72.91,56.99 73.22,56.76 73.59,56.63 73.79,56.60 85.25,56.68 105.26,56.83 122.35,56.86 139.42,56.78 156.47,56.70 173.40,56.57 189.84,56.31 204.23,55.70 211.73,53.42 212.93,48.10 213.09,41.13 213.26,34.10 213.33,27.08 213.16,20.12 212.70,13.45 211.67,7.59 207.74,3.70 196.00,2.39 178.93,2.25 161.83,2.11 144.73,1.97 127.63,1.82 110.54,1.68 93.44,1.65 76.35,1.73 59.29,1.82 42.35,1.94 25.90,2.21 11.50,2.82 4.00,5.10 2.81,10.41 2.67,17.38 2.52,24.41 2.47,31.43 2.67,38.38 3.15,45.05 4.19,50.91 8.13,54.80 19.86,56.12 36.92,56.26 53.99,56.40 71.03,56.54 87.94,56.68 104.33,56.83 118.68,56.86 125.18,56.83 125.44,56.89 125.67,57.02 125.87,57.19 126.02,57.41 126.11,57.66 126.14,57.92 126.11,58.19 126.02,58.44 125.86,58.65 125.67,58.83 125.43,58.95 125.17,59.02 Z" fill="#1d1d1d" stroke="#1d1d1d" stroke-width="2" pointer-events="none"/></g><text font-size="28px" font-family="Caveat Brush" font-weight="normal" line-height="28px" letter-spacing="-0.03em" text-align="center" dominant-baseline="mathematical" alignment-baseline="mathematical" text-anchor="middle" transform="translate(29.200000000000003, 10.58)" fill="#1d1d1d" transform-origin="center center"><tspan y="14px" x="82.5">enroll('Defense')
</tspan></text></g><g><g text-align="center" text-anchor="middle" transform="translate(1419.89, 309.88) rotate(0.00, 93.47, 93.47)"><g id="ec45d261-2741-43d7-037a-2fd2b90c58db_svg" class="tl-centered-g"><path d="M162.74,154.29 Q160.28,157.71 159.21,158.95 T156.70,161.71 153.35,164.94 149.05,168.46 143.72,172.11 137.36,175.77 129.92,179.20 121.41,182.19 111.86,184.52 101.37,185.92 90.04,186.13 78.08,184.88 65.74,181.94 53.33,177.10 41.25,170.24 29.92,161.31 19.80,150.35 11.35,137.52 5.01,123.08 1.18,107.41 0.17,90.98 2.16,74.35 7.25,58.13 15.35,42.94 26.25,29.39 39.59,18.04 54.89,9.35 71.55,3.66 88.95,1.18 106.41,1.96 123.27,5.90 138.93,12.75 152.87,22.17 164.69,33.70 174.08,46.82 180.90,60.99 185.13,75.67 186.84,90.37 186.23,104.65 183.56,118.12 179.16,130.50 173.36,141.60 166.53,151.31 159.02,159.58 151.14,166.44 143.17,171.96 135.38,176.24 127.97,179.44 121.13,181.72 114.97,183.24 109.61,184.22 105.11,184.77 100.38,185.01 97.68,185.05 97.68,185.04 100.34,184.69 104.99,184.02 109.41,183.22 114.63,182.00 120.60,180.23 127.22,177.76 134.38,174.45 141.92,170.16 149.65,164.74 157.33,158.04 164.66,149.99 171.34,140.54 177.01,129.73 181.32,117.66 183.95,104.54 184.57,90.63 182.93,76.30 178.84,61.97 172.22,48.14 163.08,35.32 151.59,24.06 138.01,14.84 122.74,8.12 106.30,4.24 89.26,3.44 72.28,5.82 56.01,11.34 41.07,19.78 28.03,30.83 17.37,44.02 9.43,58.82 4.43,74.63 2.45,90.84 3.41,106.87 7.12,122.16 13.27,136.26 21.50,148.79 31.36,159.49 42.40,168.21 54.19,174.91 66.28,179.62 78.32,182.48 89.99,183.66 101.01,183.40 111.22,181.96 120.46,179.59 128.69,176.57 135.89,173.20 142.09,169.69 147.34,166.24 151.74,163.06 155.37,160.29 158.24,157.99 161.11,155.62 Z" fill="#36b24d" stroke="#36b24d" stroke-width="2" pointer-events="none" stroke-linecap="round" stroke-linejoin="round"/></g><text font-size="28px" font-family="Caveat Brush" font-weight="normal" line-height="28px" letter-spacing="-0.03em" text-align="center" dominant-baseline="mathematical" alignment-baseline="mathematical" text-anchor="middle" transform="translate(44.47000000000267, 74.47)" fill="#36b24d" transform-origin="center center"><tspan y="14px" x="53">PENDING
</tspan></text></g><text font-size="20.440088093305228px" font-family="Caveat Brush" font-weight="normal" line-height="20.440088093305228px" letter-spacing="-0.03em" text-align="center" dominant-baseline="mathematical" alignment-baseline="mathematical" text-anchor="middle" fill="#36b24d" transform="translate(1455.05, 417.24) rotate(0.00, 59.50, 15.00)"><tspan y="10.220044046652614px" x="63.5">input = 'Defense'
</tspan></text><text font-size="20.440088093305228px" font-family="Caveat Brush" font-weight="normal" line-height="20.440088093305228px" letter-spacing="-0.03em" text-align="center" dominant-baseline="mathematical" alignment-baseline="mathematical" text-anchor="middle" fill="#36b24d" transform="translate(1448.17, 356.11) rotate(0.00, 65.00, 15.00)"><tspan y="10.220044046652614px" x="69">result = undefined
</tspan></text></g><g><g text-align="center" text-anchor="middle" transform="translate(680.21, 769.06) rotate(0.00, 93.47, 93.47)"><g id="fce82b30-3266-47f0-23b7-d2a4017a33a8_svg" class="tl-centered-g"><path d="M129.88,177.54 Q125.89,179.65 124.29,180.36 T120.59,181.87 115.86,183.42 110.07,184.80 103.24,185.84 95.41,186.34 86.67,186.07 77.12,184.79 66.95,182.30 56.36,178.36 45.66,172.78 35.19,165.38 25.35,156.09 16.60,144.90 9.39,131.94 4.19,117.42 1.43,101.70 1.45,85.23 4.52,68.60 10.74,52.44 20.09,37.45 32.35,24.30 47.14,13.65 63.93,6.05 82.03,1.91 100.70,1.49 119.11,4.84 136.45,11.82 151.98,22.12 165.06,35.23 175.17,50.53 182.00,67.32 185.40,84.84 185.39,102.36 182.18,119.21 176.10,134.79 167.60,148.64 157.18,160.43 145.38,169.97 132.73,177.19 119.73,182.16 106.82,185.02 94.36,186.01 82.65,185.40 71.89,183.50 62.22,180.61 53.71,177.02 46.40,173.03 40.24,168.91 35.17,164.89 31.09,161.18 27.92,157.95 24.95,154.46 23.37,152.45 23.37,152.45 25.17,154.24 28.42,157.42 31.73,160.44 35.93,163.87 41.09,167.58 47.26,171.40 54.50,175.12 62.84,178.50 72.29,181.27 82.78,183.12 94.19,183.73 106.34,182.79 118.93,180.02 131.61,175.20 143.95,168.18 155.47,158.91 165.66,147.44 173.98,133.95 179.94,118.77 183.11,102.35 183.16,85.26 179.89,68.16 173.26,51.78 163.43,36.83 150.71,24.01 135.59,13.93 118.69,7.08 100.74,3.77 82.53,4.14 64.86,8.13 48.47,15.51 34.01,25.87 22.03,38.66 12.88,53.27 6.77,69.02 3.75,85.24 3.69,101.30 6.37,116.65 11.42,130.81 18.43,143.47 26.97,154.38 36.56,163.43 46.77,170.63 57.21,176.05 67.53,179.84 77.45,182.19 86.74,183.34 95.24,183.57 102.86,183.15 109.53,182.29 115.26,181.24 120.04,180.18 123.86,179.22 127.70,178.14 Z" fill="#0e98ad" stroke="#0e98ad" stroke-width="2" pointer-events="none" stroke-linecap="round" stroke-linejoin="round"/></g><text font-size="28px" font-family="Caveat Brush" font-weight="normal" line-height="28px" letter-spacing="-0.03em" text-align="center" dominant-baseline="mathematical" alignment-baseline="mathematical" text-anchor="middle" transform="translate(27.97000000000267, 74.47)" fill="#0e98ad" transform-origin="center center"><tspan y="14px" x="69.5">REFETCHING
</tspan></text></g><text font-size="20.440088093305228px" font-family="Caveat Brush" font-weight="normal" line-height="20.440088093305228px" letter-spacing="-0.03em" text-align="center" dominant-baseline="mathematical" alignment-baseline="mathematical" text-anchor="middle" fill="#0e98ad" transform="translate(715.37, 876.42) rotate(0.00, 59.50, 15.00)"><tspan y="10.220044046652614px" x="63.5">input = 'Defense'
</tspan></text><text font-size="20.440088093305228px" font-family="Caveat Brush" font-weight="normal" line-height="20.440088093305228px" letter-spacing="-0.03em" text-align="center" dominant-baseline="mathematical" alignment-baseline="mathematical" text-anchor="middle" fill="#0e98ad" transform="translate(707.49, 815.29) rotate(0.00, 65.00, 15.00)"><tspan y="10.220044046652614px" x="69">result = undefined
</tspan></text></g><g><g text-align="center" text-anchor="middle" transform="translate(263.44, 781.45) rotate(0.00, 93.47, 93.47)"><g id="a1b689b5-6781-49e5-190e-775b84e3dcae_svg" class="tl-centered-g"><path d="M120.01,184.45 Q116.39,185.86 114.95,186.32 T111.65,187.30 107.48,188.28 102.42,189.11 96.48,189.58 89.72,189.58 82.19,188.96 73.99,187.55 65.24,185.18 56.10,181.71 46.75,176.99 37.44,170.87 28.43,163.28 20.04,154.16 12.60,143.54 6.43,131.51 1.88,118.25 -0.76,104.01 -1.22,89.10 0.70,73.94 5.10,58.96 12.00,44.65 21.32,31.50 32.86,19.99 46.32,10.55 61.30,3.55 77.33,-0.73 93.88,-2.13 110.41,-0.59 126.36,3.81 141.22,10.89 154.52,20.36 165.91,31.84 175.08,44.89 181.88,59.03 186.22,73.79 188.14,88.70 187.77,103.32 185.31,117.28 181.02,130.27 175.21,142.07 168.18,152.50 160.28,161.50 151.81,169.05 143.06,175.18 134.31,179.98 125.75,183.57 117.60,186.09 110.00,187.69 103.07,188.56 96.90,188.87 91.55,188.82 87.03,188.51 83.37,188.07 79.81,187.41 77.88,186.99 77.88,186.98 79.84,187.14 83.42,187.41 87.07,187.59 91.53,187.67 96.81,187.51 102.84,186.95 109.60,185.87 116.98,184.13 124.91,181.56 133.22,178.01 141.76,173.31 150.29,167.34 158.56,159.99 166.29,151.22 173.16,141.05 178.86,129.55 183.06,116.87 185.49,103.25 185.88,88.98 184.02,74.43 179.81,60.01 173.21,46.19 164.28,33.44 153.19,22.22 140.23,12.95 125.74,6.01 110.19,1.68 94.07,0.15 77.91,1.48 62.26,5.62 47.63,12.42 34.47,21.61 23.19,32.83 14.06,45.65 7.29,59.61 2.97,74.23 1.08,89.04 1.51,103.59 4.07,117.50 8.50,130.45 14.51,142.20 21.78,152.56 29.97,161.45 38.76,168.84 47.86,174.77 56.98,179.32 65.91,182.62 74.44,184.82 82.42,186.12 89.73,186.73 96.31,186.82 102.11,186.57 107.12,186.19 112.79,185.51 118.08,184.74 Z" fill="#0e98ad" stroke="#0e98ad" stroke-width="2" pointer-events="none" stroke-linecap="round" stroke-linejoin="round"/></g><text font-size="28px" font-family="Caveat Brush" font-weight="normal" line-height="28px" letter-spacing="-0.03em" text-align="center" dominant-baseline="mathematical" alignment-baseline="mathematical" text-anchor="middle" transform="translate(32.47000000000267, 74.47)" fill="#0e98ad" transform-origin="center center"><tspan y="14px" x="65">SUBMITTED
</tspan></text></g><text font-size="21.151117152302795px" font-family="Caveat Brush" font-weight="normal" line-height="21.151117152302795px" letter-spacing="-0.03em" text-align="center" dominant-baseline="mathematical" alignment-baseline="mathematical" text-anchor="middle" fill="#0e98ad" transform="translate(299.33, 891.33) rotate(0.00, 61.50, 15.50)"><tspan y="10.575558576151398px" x="65.5">input = 'Defense'
</tspan></text><text font-size="18.627798272889954px" font-family="Caveat Brush" font-weight="normal" line-height="18.627798272889954px" letter-spacing="-0.03em" text-align="center" dominant-baseline="mathematical" alignment-baseline="mathematical" text-anchor="middle" fill="#0e98ad" transform="translate(284.31, 823.82) rotate(0.00, 74.00, 14.50)"><tspan y="9.313899136444977px" x="78">result = returned value
</tspan></text></g><g><g text-align="center" text-anchor="middle" transform="translate(753.99, 504.54) rotate(0.00, 93.47, 93.47)"><g id="f826895e-0978-45db-2551-7e7fb0ab664a_svg" class="tl-centered-g"><path d="M143.46,173.69 Q140.56,175.96 137.79,177.70 T133.05,180.47 128.64,182.55 123.35,184.53 117.17,186.31 110.15,187.77 102.30,188.73 93.70,189.04 84.43,188.53 74.61,187.04 64.40,184.38 54.00,180.39 43.65,174.96 33.61,167.99 24.20,159.46 15.74,149.39 8.54,137.89 2.93,125.13 -0.82,111.33 -2.45,96.83 -1.80,81.96 1.26,67.15 6.72,52.83 14.52,39.43 24.48,27.38 36.36,17.06 49.81,8.80 64.43,2.84 79.80,-0.66 95.43,-1.61 110.89,-0.06 125.71,3.88 139.53,10.01 151.99,18.06 162.84,27.70 171.90,38.59 179.07,50.34 184.32,62.61 187.71,75.05 189.34,87.34 189.38,99.23 188.03,110.48 185.51,120.95 182.05,130.50 177.88,139.07 173.23,146.63 168.30,153.17 163.30,158.73 158.41,163.38 153.79,167.20 149.57,170.28 145.85,172.71 142.68,174.53 139.40,176.16 137.55,177.02 137.54,177.01 139.26,175.92 142.32,173.95 145.31,171.93 148.87,169.36 152.90,166.16 157.28,162.23 161.92,157.52 166.67,151.96 171.38,145.50 175.86,138.09 179.91,129.72 183.29,120.41 185.76,110.20 187.10,99.23 187.07,87.64 185.50,75.64 182.22,63.50 177.11,51.53 170.14,40.04 161.32,29.40 150.74,19.97 138.59,12.10 125.12,6.09 110.65,2.21 95.57,0.67 80.30,1.57 65.29,4.95 51.00,10.75 37.85,18.79 26.24,28.84 16.49,40.59 8.85,53.65 3.50,67.62 0.49,82.07 -0.17,96.57 1.40,110.73 5.04,124.20 10.50,136.67 17.52,147.90 25.77,157.73 34.96,166.05 44.76,172.84 54.87,178.12 65.02,181.97 74.98,184.51 84.55,185.88 93.57,186.25 101.92,185.81 109.51,184.77 116.32,183.33 122.33,181.65 127.56,179.93 132.04,178.32 137.07,176.33 141.75,174.38 Z" fill="#788492" stroke="#788492" stroke-width="2" pointer-events="none" stroke-linecap="round" stroke-linejoin="round"/></g><text font-size="28px" font-family="Caveat Brush" font-weight="normal" line-height="28px" letter-spacing="-0.03em" text-align="center" dominant-baseline="mathematical" alignment-baseline="mathematical" text-anchor="middle" transform="translate(22.47000000000267, 74.47)" fill="#788492" transform-origin="center center"><tspan y="14px" x="75">REDIRECTING
</tspan></text></g><text font-size="20.440088093305228px" font-family="Caveat Brush" font-weight="normal" line-height="20.440088093305228px" letter-spacing="-0.03em" text-align="center" dominant-baseline="mathematical" alignment-baseline="mathematical" text-anchor="middle" fill="#788492" transform="translate(789.15, 611.90) rotate(0.00, 59.50, 15.00)"><tspan y="10.220044046652614px" x="63.5">input = 'Defense'
</tspan></text><text font-size="20.440088093305228px" font-family="Caveat Brush" font-weight="normal" line-height="20.440088093305228px" letter-spacing="-0.03em" text-align="center" dominant-baseline="mathematical" alignment-baseline="mathematical" text-anchor="middle" fill="#788492" transform="translate(781.27, 550.77) rotate(0.00, 65.00, 15.00)"><tspan y="10.220044046652614px" x="69">result = undefined
</tspan></text></g><g><g text-align="center" text-anchor="middle" transform="translate(324.51, 16.00) rotate(0.00, 93.47, 93.47)"><g id="90d20067-cf23-496b-04af-4e75a728c411_svg" class="tl-centered-g"><path d="M185.66,78.22 Q186.67,82.22 186.96,83.79 T187.53,87.40 187.97,91.94 188.07,97.38 187.66,103.69 186.62,110.79 184.75,118.59 181.89,126.95 177.88,135.70 172.59,144.63 165.86,153.48 157.61,161.97 147.81,169.75 136.49,176.46 123.78,181.74 109.87,185.24 95.07,186.62 79.76,185.62 64.41,182.05 49.53,175.84 35.68,166.99 23.39,155.68 13.20,142.19 5.56,126.91 0.84,110.37 -0.72,93.14 0.98,75.87 5.90,59.20 13.85,43.76 24.49,30.10 37.39,18.70 52.01,9.90 67.78,3.92 84.10,0.84 100.39,0.61 116.11,3.07 130.81,7.94 144.11,14.88 155.75,23.49 165.57,33.35 173.50,44.06 179.55,55.20 183.84,66.43 186.51,77.45 187.76,87.98 187.82,97.85 186.91,106.89 185.26,115.02 183.13,122.18 180.72,128.35 178.27,133.56 175.94,137.84 173.84,141.22 171.55,144.42 170.23,146.14 170.22,146.14 171.30,144.27 173.24,140.88 175.10,137.41 177.20,133.08 179.38,127.86 181.48,121.72 183.35,114.66 184.80,106.69 185.59,97.86 185.50,88.25 184.28,77.98 181.70,67.24 177.54,56.29 171.65,45.41 163.95,34.96 154.39,25.32 143.05,16.90 130.08,10.11 115.75,5.33 100.41,2.90 84.51,3.09 68.58,6.06 53.18,11.86 38.89,20.42 26.28,31.51 15.87,44.81 8.09,59.86 3.25,76.10 1.55,92.94 3.04,109.75 7.61,125.90 15.03,140.82 24.94,154.01 36.91,165.07 50.42,173.72 64.94,179.82 79.92,183.32 94.86,184.32 109.31,182.99 122.88,179.59 135.30,174.44 146.34,167.89 155.89,160.30 163.91,152.01 170.43,143.36 175.53,134.64 179.34,126.09 182.04,117.95 183.85,110.37 184.95,103.48 185.53,97.34 185.80,92.02 185.89,87.54 185.86,83.93 185.73,80.28 Z" fill="#ff2133" stroke="#ff2133" stroke-width="2" pointer-events="none" stroke-linecap="round" stroke-linejoin="round"/></g><text font-size="28px" font-family="Caveat Brush" font-weight="normal" line-height="28px" letter-spacing="-0.03em" text-align="center" dominant-baseline="mathematical" alignment-baseline="mathematical" text-anchor="middle" transform="translate(57.47000000000267, 74.47)" fill="#ff2133" transform-origin="center center"><tspan y="14px" x="40">ERROR
</tspan></text></g><g text-align="center" text-anchor="middle" transform="translate(324.51, 16.00) rotate(0.00, 93.47, 93.47)"><g id="90d20067-cf23-496b-04af-4e75a728c411_svg" class="tl-centered-g"><path d="M185.66,78.22 Q186.67,82.22 186.96,83.79 T187.53,87.40 187.97,91.94 188.07,97.38 187.66,103.69 186.62,110.79 184.75,118.59 181.89,126.95 177.88,135.70 172.59,144.63 165.86,153.48 157.61,161.97 147.81,169.75 136.49,176.46 123.78,181.74 109.87,185.24 95.07,186.62 79.76,185.62 64.41,182.05 49.53,175.84 35.68,166.99 23.39,155.68 13.20,142.19 5.56,126.91 0.84,110.37 -0.72,93.14 0.98,75.87 5.90,59.20 13.85,43.76 24.49,30.10 37.39,18.70 52.01,9.90 67.78,3.92 84.10,0.84 100.39,0.61 116.11,3.07 130.81,7.94 144.11,14.88 155.75,23.49 165.57,33.35 173.50,44.06 179.55,55.20 183.84,66.43 186.51,77.45 187.76,87.98 187.82,97.85 186.91,106.89 185.26,115.02 183.13,122.18 180.72,128.35 178.27,133.56 175.94,137.84 173.84,141.22 171.55,144.42 170.23,146.14 170.22,146.14 171.30,144.27 173.24,140.88 175.10,137.41 177.20,133.08 179.38,127.86 181.48,121.72 183.35,114.66 184.80,106.69 185.59,97.86 185.50,88.25 184.28,77.98 181.70,67.24 177.54,56.29 171.65,45.41 163.95,34.96 154.39,25.32 143.05,16.90 130.08,10.11 115.75,5.33 100.41,2.90 84.51,3.09 68.58,6.06 53.18,11.86 38.89,20.42 26.28,31.51 15.87,44.81 8.09,59.86 3.25,76.10 1.55,92.94 3.04,109.75 7.61,125.90 15.03,140.82 24.94,154.01 36.91,165.07 50.42,173.72 64.94,179.82 79.92,183.32 94.86,184.32 109.31,182.99 122.88,179.59 135.30,174.44 146.34,167.89 155.89,160.30 163.91,152.01 170.43,143.36 175.53,134.64 179.34,126.09 182.04,117.95 183.85,110.37 184.95,103.48 185.53,97.34 185.80,92.02 185.89,87.54 185.86,83.93 185.73,80.28 Z" fill="#ff2133" stroke="#ff2133" stroke-width="2" pointer-events="none" stroke-linecap="round" stroke-linejoin="round"/></g><text font-size="28px" font-family="Caveat Brush" font-weight="normal" line-height="28px" letter-spacing="-0.03em" text-align="center" dominant-baseline="mathematical" alignment-baseline="mathematical" text-anchor="middle" transform="translate(57.47000000000267, 74.47)" fill="#ff2133" transform-origin="center center"><tspan y="14px" x="40">ERROR
</tspan></text></g><text font-size="21.151117152302795px" font-family="Caveat Brush" font-weight="normal" line-height="21.151117152302795px" letter-spacing="-0.03em" text-align="center" dominant-baseline="mathematical" alignment-baseline="mathematical" text-anchor="middle" fill="#ff2133" transform="translate(360.40, 129.04) rotate(0.00, 61.50, 15.50)"><tspan y="10.575558576151398px" x="65.5">input = 'Defense'
</tspan></text><text font-size="21.151117152302795px" font-family="Caveat Brush" font-weight="normal" line-height="21.151117152302795px" letter-spacing="-0.03em" text-align="center" dominant-baseline="mathematical" alignment-baseline="mathematical" text-anchor="middle" fill="#ff2133" transform="translate(360.40, 129.04) rotate(0.00, 61.50, 15.50)"><tspan y="10.575558576151398px" x="65.5">input = 'Defense'
</tspan></text><text font-size="18.627798272889954px" font-family="Caveat Brush" font-weight="normal" line-height="18.627798272889954px" letter-spacing="-0.03em" text-align="center" dominant-baseline="mathematical" alignment-baseline="mathematical" text-anchor="middle" fill="#ff2133" transform="translate(374.88, 61.53) rotate(0.00, 44.50, 14.50)"><tspan y="9.313899136444977px" x="48.5">result = error
</tspan></text><text font-size="18.627798272889954px" font-family="Caveat Brush" font-weight="normal" line-height="18.627798272889954px" letter-spacing="-0.03em" text-align="center" dominant-baseline="mathematical" alignment-baseline="mathematical" text-anchor="middle" fill="#ff2133" transform="translate(374.88, 61.53) rotate(0.00, 44.50, 14.50)"><tspan y="9.313899136444977px" x="48.5">result = error
</tspan></text></g><g><g text-align="center" text-anchor="middle" transform="translate(16.00, 336.36) rotate(0.00, 93.47, 93.47)"><g id="90c0a778-3a07-469b-3c7b-c55a42c5ec3f_svg" class="tl-centered-g"><path d="M114.86,1.46 Q118.98,2.14 120.57,2.51 T124.16,3.46 128.55,4.92 133.65,7.09 139.35,10.10 145.53,14.05 152.02,19.08 158.63,25.29 165.11,32.77 171.24,41.56 176.69,51.68 181.15,63.09 184.29,75.67 185.78,89.23 185.33,103.48 182.70,118.06 177.70,132.54 170.26,146.41 160.41,159.14 148.29,170.19 134.18,179.05 118.48,185.26 101.69,188.44 84.43,188.35 67.33,184.89 51.07,178.12 36.29,168.25 23.59,155.65 13.46,140.83 6.25,124.38 2.18,106.95 1.34,89.24 3.63,71.90 8.83,55.55 16.60,40.71 26.54,27.79 38.14,17.08 50.92,8.76 64.37,2.86 78.01,-0.68 91.44,-2.02 104.31,-1.41 116.33,0.88 127.32,4.52 137.15,9.20 145.75,14.61 153.12,20.45 159.30,26.45 164.36,32.37 168.41,37.99 171.59,43.13 174.03,47.66 175.82,51.49 177.36,55.43 178.14,57.64 178.13,57.64 177.09,55.55 175.19,51.81 173.19,48.14 170.57,43.79 167.22,38.88 163.03,33.53 157.92,27.89 151.79,22.14 144.56,16.51 136.16,11.26 126.59,6.69 115.90,3.12 104.19,0.87 91.66,0.25 78.58,1.54 65.28,4.96 52.16,10.68 39.68,18.77 28.34,29.19 18.62,41.78 11.00,56.25 5.89,72.21 3.62,89.14 4.41,106.45 8.34,123.47 15.34,139.55 25.21,154.04 37.57,166.36 51.95,176.01 67.79,182.65 84.45,186.06 101.28,186.19 117.64,183.13 132.97,177.11 146.75,168.50 158.60,157.73 168.24,145.32 175.52,131.78 180.42,117.65 183.01,103.41 183.45,89.49 181.99,76.24 178.92,63.96 174.54,52.84 169.19,43.00 163.18,34.47 156.80,27.26 150.33,21.28 144.01,16.41 138.05,12.49 132.58,9.41 127.73,6.98 123.60,5.06 120.24,3.61 116.80,2.24 Z" fill="#ff9433" stroke="#ff9433" stroke-width="2" pointer-events="none" stroke-linecap="round" stroke-linejoin="round"/></g><text font-size="28px" font-family="Caveat Brush" font-weight="normal" line-height="28px" letter-spacing="-0.03em" text-align="center" dominant-baseline="mathematical" alignment-baseline="mathematical" text-anchor="middle" transform="translate(66.47000000000267, 74.47)" fill="#ff9433" transform-origin="center center"><tspan y="14px" x="31">IDLE
</tspan></text></g><text font-size="23.55413703935751px" font-family="Caveat Brush" font-weight="normal" line-height="23.55413703935751px" letter-spacing="-0.03em" text-align="center" dominant-baseline="mathematical" alignment-baseline="mathematical" text-anchor="middle" fill="#ff9433" transform="translate(38.85, 440.92) rotate(0.00, 72.00, 17.00)"><tspan y="11.777068519678755px" x="76">input = undefined
</tspan></text><text font-size="23.15375285183847px" font-family="Caveat Brush" font-weight="normal" line-height="23.15375285183847px" letter-spacing="-0.03em" text-align="center" dominant-baseline="mathematical" alignment-baseline="mathematical" text-anchor="middle" fill="#ff9433" transform="translate(39.71, 379.93) rotate(0.00, 73.00, 16.50)"><tspan y="11.576876425919234px" x="77">result = undefined
</tspan></text></g><g text-align="center" text-anchor="middle" transform="translate(1188.60, 733.59) rotate(0.00, 90.99, 38.54)"><g id="033bd6c8-5ad8-4b53-1574-c2d2dd78b1e5_svg" class="tl-centered-g"><path d="M91.15,77.59 Q78.30,77.73 70.24,77.81 T53.70,77.95 36.63,78.09 19.40,78.23 6.59,76.52 1.24,70.40 -0.14,61.31 -0.36,51.75 -0.43,42.11 -0.63,32.45 -0.91,22.78 -1.17,13.06 0.55,4.92 9.56,0.80 24.94,-0.15 41.65,-0.21 58.75,-0.10 75.94,0.06 93.16,0.09 110.38,0.00 127.61,-0.09 144.83,-0.18 162.08,-0.27 174.89,1.48 180.25,7.57 181.65,16.60 181.90,26.09 182.00,35.65 182.23,45.24 182.54,54.83 182.83,64.47 181.13,72.57 172.12,76.70 156.73,77.69 139.99,77.80 122.88,77.74 105.67,77.64 88.43,77.66 68.23,77.81 56.46,77.85 56.07,77.72 55.75,77.48 55.53,77.14 55.42,76.76 55.44,76.36 55.59,75.98 55.85,75.67 56.19,75.47 56.59,75.38 56.99,75.42 57.35,75.59 57.64,75.87 57.83,76.22 57.90,76.62 57.83,77.02 57.65,77.37 57.35,77.65 56.99,77.82 56.59,77.86 56.20,77.78 55.85,77.57 55.59,77.26 55.44,76.89 55.42,76.49 55.53,76.10 55.75,75.77 56.07,75.52 56.45,75.39 56.65,75.36 68.23,75.42 88.43,75.53 105.66,75.51 122.87,75.35 139.95,75.15 156.55,74.79 171.08,74.03 178.62,71.33 179.75,64.41 179.80,54.86 179.86,45.27 179.82,35.70 179.53,26.20 178.96,17.04 177.80,8.99 173.82,4.18 162.03,2.90 144.83,2.73 127.60,2.56 110.38,2.39 93.15,2.22 75.94,2.19 58.75,2.29 41.69,2.44 25.11,2.75 10.60,3.47 3.07,6.16 1.92,13.14 1.83,22.76 1.74,32.43 1.75,42.08 2.01,51.65 2.56,60.89 3.69,69.00 7.66,73.82 19.45,75.07 36.62,75.18 53.69,75.30 70.24,75.42 84.73,75.53 91.27,75.61 91.50,75.67 91.71,75.78 91.89,75.93 92.03,76.13 92.11,76.36 92.14,76.59 92.11,76.83 92.03,77.05 91.89,77.25 91.72,77.41 91.50,77.52 91.27,77.58 Z" fill="#0e98ad" stroke="#0e98ad" stroke-width="2" pointer-events="none"/></g><text font-size="28px" font-family="Caveat Brush" font-weight="normal" line-height="28px" letter-spacing="-0.03em" text-align="center" dominant-baseline="mathematical" alignment-baseline="mathematical" text-anchor="middle" transform="translate(24.489999999999995, 19.54)" fill="#0e98ad" transform-origin="center center"><tspan y="14px" x="70.5">if `p` resolves
</tspan></text></g><g id="95c84a99-b482-4095-0711-59e4ce3b5d57_svg" class="tl-centered-g" transform="translate(1329.09, 496.82) rotate(0.00, 64.73, 110.39)"><defs><mask id="95c84a99-b482-4095-0711-59e4ce3b5d57_clip"><rect x="-100" y="-100" width="329.46" height="420.77" fill="white"/><rect x="64.73" y="110.38" width="0" height="0" rx="4" ry="4" fill="black" opacity="1"/></mask></defs><g pointer-events="none" opacity="1" mask=""><path d="M130.35,0.52 Q98.18,55.25 82.11,82.62 T49.96,137.36 17.83,192.11 1.67,219.59 1.46,219.77 1.21,219.88 0.93,219.90 0.66,219.83 0.43,219.67 0.26,219.45 0.17,219.19 0.16,218.92 0.25,218.65 0.42,218.43 0.64,218.27 0.91,218.19 1.19,218.21 1.45,218.31 1.66,218.48 1.80,218.72 1.87,218.99 1.84,219.26 1.73,219.52 1.54,219.72 1.29,219.85 1.02,219.90 0.75,219.86 0.50,219.73 0.31,219.53 0.19,219.28 0.16,219.01 0.21,218.74 0.26,218.61 16.31,191.22 48.40,136.44 80.48,81.66 112.54,26.88 128.65,-0.62 128.82,-0.79 129.03,-0.92 129.26,-1.00 129.51,-1.02 129.75,-0.98 129.98,-0.88 130.17,-0.73 130.33,-0.54 130.43,-0.32 130.48,-0.08 130.46,0.17 130.39,0.41 Z" fill="#0e98ad" stroke="#0e98ad" stroke-width="2.11" stroke-dasharray="none" stroke-dashoffset="none" stroke-linecap="round" stroke-linejoin="round" pointer-events="stroke"/><g><path d="M 13.91,212.86388327716696 L 0,220.77 0.10,204.7703658274368" fill="none" stroke="#0e98ad" stroke-width="4.23" stroke-linecap="round" stroke-linejoin="round" pointer-events="none"/></g></g></g><g text-align="center" text-anchor="middle" transform="translate(885.24, 185.72) rotate(0.00, 90.99, 38.54)"><g id="94480dd2-a00e-4471-2f7b-ca4a4e370561_svg" class="tl-centered-g"><path d="M90.94,0.15 Q103.75,-0.07 111.78,-0.19 T128.27,-0.43 145.28,-0.68 162.44,-0.92 175.22,0.73 180.56,6.80 181.90,15.81 182.08,25.28 182.12,34.83 182.29,44.40 182.53,53.98 182.75,63.62 181.01,71.70 172.02,75.82 156.71,76.81 140.05,76.91 123.03,76.85 105.90,76.74 88.75,76.75 71.60,76.89 54.44,77.03 37.28,77.17 20.10,77.31 7.33,75.59 1.99,69.57 0.61,60.68 0.38,51.35 0.31,41.96 0.10,32.54 -0.18,23.12 -0.45,13.64 1.26,5.65 10.25,1.52 25.59,0.44 42.27,0.23 59.33,0.19 76.48,0.19 93.66,0.07 113.78,-0.20 125.52,-0.32 125.90,-0.19 126.22,0.05 126.45,0.38 126.56,0.77 126.54,1.17 126.40,1.55 126.14,1.85 125.79,2.06 125.40,2.15 125.00,2.11 124.64,1.95 124.34,1.67 124.15,1.32 124.08,0.92 124.15,0.52 124.33,0.17 124.62,-0.11 124.99,-0.28 125.39,-0.33 125.78,-0.25 126.13,-0.04 126.39,0.26 126.54,0.64 126.56,1.04 126.46,1.43 126.24,1.76 125.92,2.01 125.54,2.14 125.34,2.17 113.80,2.19 93.67,2.20 76.50,2.32 59.35,2.58 42.33,2.88 25.79,3.34 11.31,4.19 3.79,6.90 2.64,13.72 2.56,23.09 2.47,32.52 2.49,41.92 2.75,51.25 3.31,60.25 4.44,68.15 8.40,72.89 20.14,74.14 37.28,74.26 54.44,74.38 71.60,74.50 88.75,74.62 105.90,74.61 123.02,74.46 140.01,74.27 156.52,73.91 170.98,73.15 178.49,70.45 179.67,63.53 179.79,54.00 179.91,44.42 179.94,34.86 179.72,25.38 179.20,16.22 178.10,8.19 174.16,3.42 162.42,2.24 145.30,2.23 128.29,2.22 111.80,2.20 97.36,2.17 90.84,2.13 90.61,2.08 90.39,1.97 90.21,1.81 90.08,1.62 89.99,1.39 89.96,1.16 89.99,0.92 90.07,0.69 90.20,0.50 90.38,0.34 90.59,0.22 90.83,0.16 Z" fill="#ff2133" stroke="#ff2133" stroke-width="2" pointer-events="none"/></g><text font-size="28px" font-family="Caveat Brush" font-weight="normal" line-height="28px" letter-spacing="-0.03em" text-align="center" dominant-baseline="mathematical" alignment-baseline="mathematical" text-anchor="middle" transform="translate(29.989999999999995, 19.54)" fill="#ff2133" transform-origin="center center"><tspan y="14px" x="65">if `p` rejects
</tspan></text></g><g id="39dbec29-eb22-4ee7-01d7-feeabc692d8b_svg" class="tl-centered-g" transform="translate(605.50, 416.83) rotate(0.00, 200.17, 1.06)"><defs><mask id="39dbec29-eb22-4ee7-01d7-feeabc692d8b_clip"><rect x="-100" y="-100" width="600.33" height="202.12" fill="white"/><rect x="200.17" y="1.06" width="0" height="0" rx="4" ry="4" fill="black" opacity="1"/></mask></defs><g pointer-events="none" opacity="1" mask=""><path d="M0.01,-0.96 Q99.59,-0.36 149.38,-0.07 T248.97,0.50 348.55,1.06 398.47,1.36 398.70,1.44 398.90,1.59 399.03,1.79 399.10,2.03 399.09,2.28 398.99,2.51 398.83,2.69 398.62,2.82 398.38,2.87 398.13,2.84 397.91,2.74 397.73,2.57 397.61,2.35 397.58,2.11 397.62,1.86 397.73,1.64 397.91,1.47 398.14,1.37 398.39,1.35 398.63,1.40 398.84,1.53 399.00,1.72 399.09,1.95 399.10,2.20 399.03,2.43 398.89,2.64 398.69,2.79 398.46,2.86 398.34,2.88 348.54,2.63 248.96,2.14 149.37,1.66 49.79,1.19 -0.12,0.94 -0.34,0.89 -0.54,0.78 -0.72,0.63 -0.84,0.44 -0.93,0.22 -0.95,-0.01 -0.92,-0.23 -0.84,-0.45 -0.71,-0.63 -0.54,-0.79 -0.33,-0.89 -0.11,-0.95 Z" fill="#1d1d1d" stroke="#1d1d1d" stroke-width="2.11" stroke-dasharray="none" stroke-dashoffset="none" stroke-linecap="round" stroke-linejoin="round" pointer-events="stroke"/><g><path d="M 386.52,-5.953263388468524 L 400.34,2.12 386.44,10.04651227778523" fill="none" stroke="#1d1d1d" stroke-width="4.23" stroke-linecap="round" stroke-linejoin="round" pointer-events="none"/></g></g></g><g id="cb276bf6-9696-409c-2f47-b54d5880c6c8_svg" class="tl-centered-g" transform="translate(202.94, 430.39) rotate(0.00, 85.58, 0.52)"><defs><mask id="cb276bf6-9696-409c-2f47-b54d5880c6c8_clip"><rect x="-100" y="-100" width="371.15" height="201.04" fill="white"/><rect x="85.58" y="0.52" width="0" height="0" rx="4" ry="4" fill="black" opacity="1"/></mask></defs><g pointer-events="none" opacity="1" mask=""><path d="M0.01,-0.87 Q42.29,-0.53 63.44,-0.37 T105.73,-0.06 148.02,0.24 169.27,0.40 169.46,0.47 169.63,0.59 169.74,0.76 169.79,0.96 169.78,1.17 169.70,1.36 169.57,1.52 169.39,1.62 169.19,1.66 168.99,1.64 168.80,1.55 168.65,1.41 168.55,1.23 168.52,1.02 168.56,0.82 168.65,0.64 168.81,0.50 168.99,0.41 169.20,0.39 169.40,0.44 169.58,0.54 169.71,0.70 169.78,0.89 169.79,1.10 169.74,1.30 169.62,1.47 169.46,1.59 169.26,1.66 169.16,1.67 148.01,1.56 105.72,1.34 63.43,1.14 21.14,0.95 -0.11,0.85 -0.31,0.80 -0.49,0.71 -0.65,0.57 -0.76,0.40 -0.84,0.20 -0.86,-0.01 -0.83,-0.21 -0.76,-0.40 -0.64,-0.57 -0.48,-0.71 -0.30,-0.81 -0.10,-0.85 Z" fill="#1d1d1d" stroke="#1d1d1d" stroke-width="2.11" stroke-dasharray="none" stroke-dashoffset="none" stroke-linecap="round" stroke-linejoin="round" pointer-events="stroke"/><g><path d="M 157.35,-7.044044873050328 L 171.16,1.04 157.25,8.955659774835306" fill="none" stroke="#1d1d1d" stroke-width="4.23" stroke-linecap="round" stroke-linejoin="round" pointer-events="none"/></g></g></g><g text-align="center" text-anchor="middle" transform="translate(883.15, 783.37) rotate(0.00, 152.72, 18.87)"><g id="8e66fc99-5415-4473-0a62-e0738c712853_svg" class="tl-centered-g"><defs><mask id="8e66fc99-5415-4473-0a62-e0738c712853_clip"><rect x="-100" y="-100" width="505.45" height="237.74" fill="white"/><rect x="129.22" y="-0.129999999999999" width="47" height="38" rx="4" ry="4" fill="black" opacity="1"/></mask></defs><g pointer-events="none" opacity="1" mask="url(#8e66fc99-5415-4473-0a62-e0738c712853_clip)"><path d="M305.56,0.88 Q229.68,10.17 191.75,14.83 T115.87,24.15 40.00,33.49 1.96,38.15 1.75,38.11 1.56,38.00 1.42,37.84 1.34,37.65 1.33,37.43 1.38,37.23 1.50,37.05 1.67,36.92 1.87,36.84 2.08,36.84 2.29,36.91 2.46,37.03 2.58,37.21 2.64,37.41 2.63,37.63 2.56,37.83 2.42,37.99 2.24,38.10 2.03,38.15 1.82,38.13 1.62,38.05 1.47,37.90 1.36,37.71 1.32,37.50 1.36,37.29 1.45,37.10 1.61,36.95 1.80,36.86 1.90,36.83 39.83,32.13 115.70,22.72 191.56,13.29 267.41,3.85 305.45,-0.88 305.66,-0.85 305.86,-0.78 306.03,-0.66 306.17,-0.50 306.27,-0.31 306.32,-0.11 306.32,0.10 306.27,0.31 306.17,0.50 306.03,0.66 305.86,0.78 305.66,0.85 Z" fill="#788492" stroke="#788492" stroke-width="2.11" stroke-dasharray="none" stroke-dashoffset="none" stroke-linecap="round" stroke-linejoin="round" pointer-events="stroke"/><g><path d="M 14.73,43.980512791595544 L 0,37.74 12.77,28.101259567149793" fill="none" stroke="#788492" stroke-width="4.23" stroke-linecap="round" stroke-linejoin="round" pointer-events="none"/></g></g></g><text font-size="28px" font-family="Caveat Brush" font-weight="normal" line-height="28px" letter-spacing="-0.03em" text-align="left" dominant-baseline="mathematical" alignment-baseline="mathematical" text-anchor="start" transform="translate(129.23, -0.129999999999999)" fill="#788492" transform-origin="center center"><tspan y="14px" x="4">void
</tspan></text></g><g text-align="center" text-anchor="middle" transform="translate(883.15, 803.89) rotate(0.00, 152.72, 53.32)"><g id="b4baab09-08f4-4b57-0ca8-3e4c2aadffd0_svg" class="tl-centered-g"><defs><mask id="b4baab09-08f4-4b57-0ca8-3e4c2aadffd0_clip"><rect x="-100" y="-100" width="505.45" height="306.64" fill="white"/><rect x="80.72" y="34.32" width="144" height="38" rx="4" ry="4" fill="black" opacity="1"/></mask></defs><g pointer-events="none" opacity="1" mask="url(#b4baab09-08f4-4b57-0ca8-3e4c2aadffd0_clip)"><path d="M305.80,0.99 Q229.89,27.43 191.94,40.66 T116.03,67.12 40.13,93.59 2.04,106.86 1.75,106.86 1.48,106.77 1.25,106.60 1.09,106.36 1.01,106.09 1.02,105.80 1.12,105.53 1.31,105.31 1.55,105.16 1.83,105.09 2.12,105.12 2.38,105.24 2.59,105.43 2.73,105.69 2.78,105.97 2.73,106.26 2.60,106.51 2.40,106.71 2.14,106.84 1.85,106.87 1.57,106.81 1.32,106.66 1.13,106.45 1.02,106.18 1.00,105.89 1.08,105.62 1.24,105.38 1.46,105.20 1.59,105.13 39.53,91.87 115.41,65.35 191.29,38.82 267.17,12.28 305.23,-1.02 305.48,-1.04 305.73,-1.01 305.96,-0.91 306.16,-0.76 306.32,-0.57 306.43,-0.34 306.49,-0.10 306.48,0.15 306.42,0.40 306.29,0.62 306.12,0.80 305.91,0.94 Z" fill="#0e98ad" stroke="#0e98ad" stroke-width="2.11" stroke-dasharray="none" stroke-dashoffset="none" stroke-linecap="round" stroke-linejoin="round" pointer-events="stroke"/><g><path d="M 15.71,109.62566503775177 L 0,106.64 10.44,94.51981106103047" fill="none" stroke="#0e98ad" stroke-width="4.23" stroke-linecap="round" stroke-linejoin="round" pointer-events="none"/></g></g></g><text font-size="28px" font-family="Caveat Brush" font-weight="normal" line-height="28px" letter-spacing="-0.03em" text-align="left" dominant-baseline="mathematical" alignment-baseline="mathematical" text-anchor="start" transform="translate(80.72999999999999, 34.32)" fill="#0e98ad" transform-origin="center center"><tspan y="14px" x="4">returned value
</tspan></text></g><g text-align="center" text-anchor="middle" transform="translate(218.94, 488.61) rotate(0.00, 261.15, 140.22)"><g id="0cb743cc-ac41-4590-1987-c07d4ab64aab_svg" class="tl-centered-g"><defs><mask id="0cb743cc-ac41-4590-1987-c07d4ab64aab_clip"><rect x="-100" y="-100" width="722.31" height="480.44" fill="white"/><rect x="224.86" y="52.86" width="146" height="38" rx="4" ry="4" fill="black" opacity="1"/></mask></defs><g pointer-events="none" opacity="1" mask="url(#0cb743cc-ac41-4590-1987-c07d4ab64aab_clip)"><path d="M520.87,281.37 Q518.26,278.29 516.90,276.22 T513.64,271.27 509.26,264.77 503.71,256.80 496.97,247.48 489.00,236.91 479.77,225.25 469.25,212.65 457.42,199.27 444.28,185.31 429.85,170.93 414.14,156.34 397.22,141.72 379.15,127.26 360.02,113.14 339.95,99.53 319.08,86.57 297.56,74.40 275.55,63.11 253.25,52.80 230.84,43.53 208.54,35.32 186.53,28.17 165.01,22.07 144.20,16.98 124.26,12.83 105.37,9.54 87.70,7.01 71.39,5.16 56.58,3.86 43.38,3.01 31.89,2.50 22.19,2.24 14.36,2.15 8.44,2.15 3.97,2.19 1.63,2.16 0.94,1.94 0.36,1.52 -0.05,0.93 -0.25,0.24 -0.22,-0.48 0.03,-1.15 0.49,-1.70 1.10,-2.08 1.80,-2.25 2.51,-2.18 3.17,-1.89 3.70,-1.41 4.05,-0.78 4.17,-0.07 4.07,0.64 3.74,1.28 3.23,1.78 2.58,2.10 1.87,2.18 1.16,2.04 0.54,1.68 0.07,1.14 -0.21,0.48 -0.26,-0.24 -0.08,-0.94 0.32,-1.54 0.88,-1.98 1.56,-2.22 1.92,-2.28 3.93,-2.31 8.44,-2.35 14.41,-2.34 22.31,-2.25 32.09,-2.00 43.67,-1.49 56.97,-0.63 71.90,0.68 88.33,2.56 106.14,5.10 125.17,8.42 145.26,12.61 166.24,17.75 187.91,23.89 210.09,31.09 232.57,39.37 255.13,48.72 277.60,59.11 299.77,70.48 321.45,82.75 342.48,95.80 362.70,109.52 381.96,123.75 400.16,138.32 417.21,153.04 433.02,167.74 447.56,182.22 460.79,196.30 472.70,209.77 483.29,222.46 492.59,234.20 500.62,244.84 507.41,254.24 512.99,262.25 517.41,268.79 520.69,273.77 522.90,277.70 523.84,279.71 523.97,280.10 524.01,280.51 523.94,280.91 523.79,281.29 523.54,281.62 523.23,281.88 522.86,282.06 522.46,282.14 522.05,282.13 521.65,282.02 521.30,281.81 521.00,281.53 Z" fill="#788492" stroke="#788492" stroke-width="0" stroke-dasharray="none" stroke-dashoffset="none" stroke-linecap="round" stroke-linejoin="round" pointer-events="none"/><g><path d="M 13.94,7.84536414231158 L 0,0 13.76,-8.153645851929879" fill="none" stroke="#788492" stroke-width="4.23" stroke-linecap="round" stroke-linejoin="round" pointer-events="none"/></g></g></g><text font-size="28px" font-family="Caveat Brush" font-weight="normal" line-height="28px" letter-spacing="-0.03em" text-align="left" dominant-baseline="mathematical" alignment-baseline="mathematical" text-anchor="start" transform="translate(224.86, 52.86)" fill="#788492" transform-origin="center center"><tspan y="14px" x="4">void / Response
</tspan></text></g><g text-align="center" text-anchor="middle" transform="translate(466.38, 900.07) rotate(0.00, 106.92, 0.50)"><g id="64b00276-61d2-4c02-1fe5-91a04f5b824a_svg" class="tl-centered-g"><defs><mask id="64b00276-61d2-4c02-1fe5-91a04f5b824a_clip"><rect x="-100" y="-100" width="413.83" height="201" fill="white"/><rect x="34.91" y="-18.65" width="144" height="38" rx="4" ry="4" fill="black" opacity="1"/></mask></defs><g pointer-events="none" opacity="1" mask="url(#64b00276-61d2-4c02-1fe5-91a04f5b824a_clip)"><path d="M213.83,1.04 Q160.88,1.16 134.40,1.22 T81.44,1.36 28.48,1.50 1.86,1.55 1.59,1.46 1.36,1.29 1.20,1.06 1.13,0.78 1.14,0.50 1.24,0.23 1.43,0.01 1.67,-0.13 1.95,-0.20 2.23,-0.17 2.49,-0.05 2.70,0.15 2.83,0.40 2.88,0.68 2.83,0.96 2.70,1.21 2.50,1.41 2.24,1.53 1.96,1.56 1.68,1.50 1.43,1.36 1.25,1.14 1.14,0.88 1.12,0.59 1.20,0.32 1.36,0.08 1.59,-0.09 1.86,-0.18 2.00,-0.21 28.48,-0.31 81.43,-0.50 134.39,-0.71 187.35,-0.93 213.95,-1.03 214.19,-0.97 214.42,-0.85 214.60,-0.69 214.75,-0.48 214.84,-0.25 214.87,-0.00 214.84,0.24 214.75,0.48 214.61,0.68 214.42,0.85 214.20,0.97 213.96,1.03 Z" fill="#0e98ad" stroke="#0e98ad" stroke-width="2.11" stroke-dasharray="none" stroke-dashoffset="none" stroke-linecap="round" stroke-linejoin="round" pointer-events="stroke"/><g><path d="M 13.88,8.64524586469723 L 0,0.69 13.83,-7.354670834822574" fill="none" stroke="#0e98ad" stroke-width="4.23" stroke-linecap="round" stroke-linejoin="round" pointer-events="none"/></g></g></g><text font-size="28px" font-family="Caveat Brush" font-weight="normal" line-height="28px" letter-spacing="-0.03em" text-align="left" dominant-baseline="mathematical" alignment-baseline="mathematical" text-anchor="start" transform="translate(34.92, -18.65)" fill="#0e98ad" transform-origin="center center"><tspan y="14px" x="4">returned value
</tspan></text></g><g text-align="center" text-anchor="middle" transform="translate(143.47, 539.30) rotate(0.00, 77.00, 121.08)"><g id="19b8f53a-7a74-4d10-2462-0d83a42cf5db_svg" class="tl-centered-g"><defs><mask id="19b8f53a-7a74-4d10-2462-0d83a42cf5db_clip"><rect x="-100" y="-100" width="354" height="442.15" fill="white"/><rect x="42" y="102.07" width="70" height="38" rx="4" ry="4" fill="black" opacity="1"/></mask></defs><g pointer-events="none" opacity="1" mask="url(#19b8f53a-7a74-4d10-2462-0d83a42cf5db_clip)"><path d="M153.13,242.70 Q114.95,182.56 95.85,152.49 T57.65,92.35 19.44,32.22 0.28,2.03 0.22,1.76 0.24,1.48 0.35,1.22 0.54,1.02 0.78,0.88 1.05,0.83 1.33,0.87 1.58,0.99 1.77,1.19 1.90,1.44 1.93,1.71 1.88,1.99 1.74,2.23 1.53,2.41 1.28,2.52 1.00,2.54 0.73,2.48 0.50,2.33 0.32,2.11 0.23,1.85 0.22,1.57 0.30,1.30 0.47,1.08 0.69,0.92 0.96,0.83 1.24,0.84 1.50,0.94 1.72,1.11 1.81,1.22 20.93,31.27 59.19,91.37 97.45,151.47 135.73,211.56 154.92,241.71 155.00,241.94 155.02,242.19 154.98,242.43 154.89,242.66 154.74,242.86 154.55,243.01 154.33,243.12 154.08,243.17 153.84,243.16 153.60,243.09 153.39,242.97 153.21,242.80 Z" fill="#0e98ad" stroke="#0e98ad" stroke-width="2.11" stroke-dasharray="none" stroke-dashoffset="none" stroke-linecap="round" stroke-linejoin="round" pointer-events="stroke"/><g><path d="M 0.68,15.985313392801377 L 0,0 14.18,7.3990938939579" fill="none" stroke="#0e98ad" stroke-width="4.23" stroke-linecap="round" stroke-linejoin="round" pointer-events="none"/></g></g></g><text font-size="28px" font-family="Caveat Brush" font-weight="normal" line-height="28px" letter-spacing="-0.03em" text-align="left" dominant-baseline="mathematical" alignment-baseline="mathematical" text-anchor="start" transform="translate(42, 102.08)" fill="#0e98ad" transform-origin="center center"><tspan y="14px" x="4">clear()
</tspan></text></g><g text-align="center" text-anchor="middle" transform="translate(956.93, 628.86) rotate(0.00, 117.93, 52.37)"><g id="ca671205-ff68-4c3f-2381-9faaa1f1d4e5_svg" class="tl-centered-g"><defs><mask id="ca671205-ff68-4c3f-2381-9faaa1f1d4e5_clip"><rect x="-100" y="-100" width="435.86" height="304.73" fill="white"/><rect x="74.93" y="33.36" width="86" height="38" rx="4" ry="4" fill="black" opacity="1"/></mask></defs><g pointer-events="none" opacity="1" mask="url(#ca671205-ff68-4c3f-2381-9faaa1f1d4e5_clip)"><path d="M235.43,105.69 Q176.95,79.66 147.70,66.65 T89.21,40.64 30.71,14.64 1.34,1.56 1.13,1.36 0.99,1.11 0.94,0.83 0.98,0.54 1.11,0.28 1.32,0.08 1.58,-0.04 1.86,-0.08 2.15,-0.02 2.39,0.12 2.58,0.34 2.70,0.61 2.72,0.89 2.64,1.17 2.48,1.41 2.26,1.59 1.99,1.69 1.70,1.69 1.42,1.61 1.19,1.43 1.02,1.20 0.94,0.92 0.95,0.63 1.06,0.36 1.24,0.14 1.49,-0.01 1.77,-0.08 2.05,-0.05 2.19,-0.01 31.45,12.97 89.97,38.92 148.49,64.87 207.02,90.80 236.40,103.83 236.59,103.99 236.75,104.19 236.86,104.41 236.90,104.66 236.89,104.91 236.81,105.15 236.69,105.37 236.51,105.55 236.29,105.68 236.05,105.76 235.80,105.77 235.55,105.73 Z" fill="#788492" stroke="#788492" stroke-width="2.11" stroke-dasharray="none" stroke-dashoffset="none" stroke-linecap="round" stroke-linejoin="round" pointer-events="stroke"/><g><path d="M 9.41,12.93488925153764 L 0,0 15.91,-1.6883189827378677" fill="none" stroke="#788492" stroke-width="4.23" stroke-linecap="round" stroke-linejoin="round" pointer-events="none"/></g></g></g><text font-size="28px" font-family="Caveat Brush" font-weight="normal" line-height="28px" letter-spacing="-0.03em" text-align="left" dominant-baseline="mathematical" alignment-baseline="mathematical" text-anchor="start" transform="translate(74.93, 33.37)" fill="#788492" transform-origin="center center"><tspan y="14px" x="4">Redirect
</tspan></text></g><g text-align="center" text-anchor="middle" transform="translate(368.56, 469.40) rotate(0.00, 19.45, 156.03)"><g id="995c0eb2-ad3e-423d-3aa0-b3b70a2e1bd3_svg" class="tl-centered-g"><defs><mask id="995c0eb2-ad3e-423d-3aa0-b3b70a2e1bd3_clip"><rect x="-100" y="-100" width="238.89" height="512.05" fill="white"/><rect x="-16.055" y="137.02" width="71" height="38" rx="4" ry="4" fill="black" opacity="1"/></mask></defs><g pointer-events="none" opacity="1" mask="url(#995c0eb2-ad3e-423d-3aa0-b3b70a2e1bd3_clip)"><path d="M-0.97,311.93 Q8.75,234.42 13.61,195.67 T23.31,118.15 33.00,40.64 37.88,1.76 37.99,1.53 38.17,1.34 38.40,1.23 38.66,1.19 38.91,1.23 39.13,1.36 39.31,1.55 39.41,1.78 39.44,2.04 39.38,2.29 39.24,2.51 39.04,2.67 38.80,2.76 38.54,2.77 38.30,2.70 38.09,2.55 37.93,2.35 37.86,2.10 37.86,1.84 37.95,1.60 38.10,1.40 38.32,1.26 38.57,1.19 38.83,1.21 39.06,1.31 39.26,1.48 39.39,1.70 39.44,1.95 39.44,2.08 34.63,40.84 25.00,118.36 15.38,195.89 5.77,273.41 0.95,312.29 0.86,312.51 0.73,312.70 0.55,312.85 0.34,312.96 0.11,313.02 -0.12,313.02 -0.35,312.96 -0.56,312.85 -0.73,312.69 -0.86,312.50 -0.95,312.28 -0.97,312.05 Z" fill="#0e98ad" stroke="#0e98ad" stroke-width="2.11" stroke-dasharray="none" stroke-dashoffset="none" stroke-linecap="round" stroke-linejoin="round" pointer-events="stroke"/><g><path d="M 29.23,12.760669208650198 L 38.89,0 45.11,14.739401000194617" fill="none" stroke="#0e98ad" stroke-width="4.23" stroke-linecap="round" stroke-linejoin="round" pointer-events="none"/></g></g></g><text font-size="28px" font-family="Caveat Brush" font-weight="normal" line-height="28px" letter-spacing="-0.03em" text-align="left" dominant-baseline="mathematical" alignment-baseline="mathematical" text-anchor="start" transform="translate(-16.05, 137.03)" fill="#0e98ad" transform-origin="center center"><tspan y="14px" x="4">retry()
</tspan></text></g><g text-align="center" text-anchor="middle" transform="translate(1021.84, 388.34) rotate(0.00, 162.63, 31.56)"><g id="73ac425f-c007-4fea-0e37-b9542d96451e_svg" class="tl-centered-g"><path d="M-0.28,19.66 Q-0.50,13.96 -0.59,10.32 T1.15,3.74 9.92,0.00 24.75,-0.93 40.83,-1.06 57.27,-1.04 73.81,-0.98 90.37,-0.91 106.93,-0.84 123.50,-0.77 140.07,-0.70 156.64,-0.66 173.20,-0.69 189.77,-0.76 206.34,-0.82 222.91,-0.89 239.48,-0.96 256.04,-1.02 272.61,-1.09 289.18,-1.15 305.77,-1.21 318.15,0.51 323.38,5.84 324.73,13.25 324.94,20.88 324.99,28.51 325.17,36.14 325.43,43.77 325.67,51.46 323.95,58.34 315.18,62.16 300.34,63.13 284.25,63.27 267.80,63.25 251.25,63.20 234.68,63.14 218.11,63.08 201.53,63.02 184.95,62.96 168.38,62.93 151.80,62.97 135.22,63.04 118.64,63.11 102.07,63.19 85.49,63.26 68.91,63.33 52.33,63.41 35.75,63.48 19.15,63.55 6.77,61.83 1.55,56.49 0.21,49.07 0.04,41.41 0.01,33.76 -0.14,26.11 -0.39,17.15 -0.47,11.78 -0.32,11.33 -0.04,10.96 0.34,10.69 0.79,10.56 1.26,10.59 1.69,10.76 2.05,11.06 2.30,11.46 2.40,11.91 2.35,12.38 2.16,12.80 1.84,13.15 1.43,13.37 0.96,13.45 0.50,13.37 0.09,13.16 -0.24,12.82 -0.43,12.39 -0.49,11.93 -0.39,11.47 -0.15,11.07 0.20,10.77 0.64,10.59 1.10,10.56 1.56,10.69 1.94,10.95 2.23,11.32 2.38,11.76 2.42,11.99 2.36,17.13 2.23,26.09 2.20,33.73 2.40,41.30 2.90,48.58 3.94,54.97 7.80,59.07 19.20,60.33 35.75,60.39 52.33,60.45 68.91,60.51 85.49,60.58 102.06,60.64 118.64,60.70 135.22,60.77 151.80,60.83 168.38,60.86 184.95,60.82 201.53,60.74 218.11,60.67 234.68,60.60 251.25,60.52 267.79,60.43 284.21,60.31 300.16,60.04 314.12,59.42 321.42,57.05 322.59,51.37 322.69,43.79 322.80,36.16 322.80,28.55 322.57,21.00 322.05,13.74 320.98,7.37 317.12,3.28 305.72,2.01 289.18,1.94 272.61,1.87 256.04,1.80 239.48,1.73 222.91,1.66 206.34,1.59 189.77,1.51 173.20,1.44 156.64,1.41 140.07,1.44 123.50,1.50 106.93,1.57 90.37,1.63 73.81,1.70 57.28,1.78 40.87,1.90 24.93,2.15 10.97,2.75 3.67,5.04 2.49,10.43 2.35,16.80 2.26,19.80 2.19,20.10 2.05,20.37 1.85,20.60 1.60,20.78 1.31,20.89 1.01,20.93 0.70,20.89 0.42,20.78 0.16,20.61 -0.04,20.38 -0.19,20.11 -0.26,19.82 Z" fill="#36b24d" stroke="#36b24d" stroke-width="2" pointer-events="none"/></g><text font-size="28px" font-family="Caveat Brush" font-weight="normal" line-height="28px" letter-spacing="-0.03em" text-align="center" dominant-baseline="mathematical" alignment-baseline="mathematical" text-anchor="middle" transform="translate(63.125, 12.55)" fill="#36b24d" transform-origin="center center"><tspan y="14px" x="103.5">dispatch  promise `p`
</tspan></text></g><g id="eb489f9b-57c6-4ee5-021a-b89049998745_svg" class="tl-centered-g" transform="translate(1347.09, 408.86) rotate(0.00, 28.40, 1.43)"><defs><mask id="eb489f9b-57c6-4ee5-021a-b89049998745_clip"><rect x="-100" y="-100" width="256.8" height="202.86" fill="white"/><rect x="28.4" y="1.43" width="0" height="0" rx="2" ry="2" fill="black" opacity="1"/></mask></defs><g pointer-events="none" opacity="1" mask=""><path d="M-0.05,1.92 Q13.66,1.30 20.51,0.98 T34.21,0.34 47.91,-0.32 54.89,-0.63 55.12,-0.57 55.31,-0.43 55.46,-0.24 55.53,-0.02 55.53,0.22 55.45,0.45 55.31,0.64 55.11,0.77 54.88,0.84 54.64,0.82 54.42,0.73 54.24,0.58 54.11,0.37 54.06,0.14 54.09,-0.10 54.19,-0.32 54.36,-0.49 54.57,-0.60 54.81,-0.64 55.04,-0.60 55.25,-0.49 55.42,-0.31 55.52,-0.09 55.54,0.14 55.49,0.38 55.36,0.58 55.18,0.74 54.96,0.82 54.84,0.85 47.99,1.21 34.29,1.93 20.59,2.67 6.90,3.42 -0.07,3.79 -0.29,3.75 -0.49,3.65 -0.67,3.51 -0.80,3.34 -0.89,3.13 -0.93,2.91 -0.92,2.68 -0.85,2.47 -0.73,2.28 -0.57,2.12 -0.37,2.00 -0.16,1.94 Z" fill="#1d1d1d" stroke="#1d1d1d" stroke-width="2.11" stroke-dasharray="none" stroke-dashoffset="none" stroke-linecap="round" stroke-linejoin="round" pointer-events="stroke"/><g><path d="M 42.55,-7.293061335357287 L 56.8,0 43.36,8.686694468879812" fill="none" stroke="#1d1d1d" stroke-width="4.23" stroke-linecap="round" stroke-linejoin="round" pointer-events="none"/></g></g></g><g id="6cb9f098-9e88-4774-1eec-3871a880f532_svg" class="tl-centered-g" transform="translate(774.23, 691.48) rotate(0.00, 14.54, 30.79)"><defs><mask id="6cb9f098-9e88-4774-1eec-3871a880f532_clip"><rect x="-100" y="-100" width="229.09" height="261.58" fill="white"/><rect x="14.54" y="30.79" width="0" height="0" rx="2.12" ry="2.12" fill="black" opacity="1"/></mask></defs><g pointer-events="none" opacity="1" mask=""><path d="M30.02,0.44 Q22.91,15.36 19.36,22.82 T12.27,37.75 5.18,52.68 1.56,60.26 1.37,60.46 1.12,60.59 0.85,60.63 0.57,60.58 0.33,60.45 0.14,60.25 0.02,59.99 -0.00,59.72 0.06,59.45 0.20,59.21 0.42,59.03 0.68,58.93 0.95,58.92 1.22,58.99 1.45,59.15 1.62,59.38 1.70,59.64 1.70,59.92 1.61,60.18 1.44,60.40 1.21,60.55 0.94,60.63 0.66,60.61 0.40,60.50 0.19,60.32 0.05,60.08 -0.00,59.81 0.03,59.53 0.07,59.40 3.59,51.92 10.62,36.97 17.64,22.01 24.66,7.04 28.23,-0.54 28.38,-0.74 28.58,-0.88 28.80,-0.98 29.05,-1.02 29.29,-1.00 29.53,-0.92 29.73,-0.79 29.91,-0.62 30.03,-0.40 30.10,-0.17 30.11,0.08 30.06,0.32 Z" fill="#788492" stroke="#788492" stroke-width="2.11" stroke-dasharray="none" stroke-dashoffset="none" stroke-linecap="round" stroke-linejoin="round" pointer-events="stroke"/><g><path d="M 13.15,52.468256801398866 L 0,61.58 -1.3149814682184076,45.63412831676355" fill="none" stroke="#788492" stroke-width="4.23" stroke-linecap="round" stroke-linejoin="round" pointer-events="none"/></g></g></g><g id="85291a17-c9e3-4b4e-0bc2-432b86a15dac_svg" class="tl-centered-g" transform="translate(1083.22, 257.01) rotate(0.00, 168.34, 57.27)"><defs><mask id="85291a17-c9e3-4b4e-0bc2-432b86a15dac_clip"><rect x="-100" y="-100" width="536.67" height="314.54" fill="white"/><rect x="168.33" y="57.27" width="0" height="0" rx="4" ry="4" fill="black" opacity="1"/></mask></defs><g pointer-events="none" opacity="1" mask=""><path d="M336.39,115.35 Q252.73,86.80 210.89,72.53 T127.21,44.01 43.53,15.50 1.60,1.19 1.44,1.07 1.33,0.90 1.27,0.71 1.28,0.51 1.36,0.32 1.49,0.17 1.66,0.06 1.86,0.02 2.06,0.04 2.25,0.13 2.39,0.27 2.49,0.45 2.52,0.65 2.48,0.85 2.39,1.02 2.24,1.16 2.06,1.25 1.86,1.27 1.66,1.22 1.49,1.12 1.36,0.96 1.28,0.78 1.27,0.57 1.33,0.38 1.44,0.21 1.60,0.09 1.79,0.03 2.00,0.03 2.10,0.05 43.95,14.27 127.66,42.70 211.37,71.13 295.09,99.53 337.04,113.77 337.21,113.88 337.35,114.03 337.45,114.21 337.51,114.41 337.52,114.61 337.48,114.81 337.39,115.00 337.26,115.16 337.09,115.28 336.90,115.36 336.70,115.39 336.50,115.37 Z" fill="#ff2133" stroke="#ff2133" stroke-width="2.11" stroke-dasharray="none" stroke-dashoffset="none" stroke-linecap="round" stroke-linejoin="round" pointer-events="stroke"/><g><path d="M 10.54,12.036623535841326 L 0,0 15.69,-3.1107500892650455" fill="none" stroke="#ff2133" stroke-width="4.23" stroke-linecap="round" stroke-linejoin="round" pointer-events="none"/></g></g></g><g text-align="center" text-anchor="middle" transform="translate(527.45, 131.98) rotate(0.00, 178.90, 36.78)"><g id="7de549bb-0cfa-43d2-1540-9bd18da94ebb_svg" class="tl-centered-g"><defs><mask id="7de549bb-0cfa-43d2-1540-9bd18da94ebb_clip"><rect x="-100" y="-100" width="557.79" height="273.57" fill="white"/><rect x="150.89" y="17.78" width="56" height="38" rx="4" ry="4" fill="black" opacity="1"/></mask></defs><g pointer-events="none" opacity="1" mask="url(#7de549bb-0cfa-43d2-1540-9bd18da94ebb_clip)"><path d="M357.60,74.48 Q268.66,56.11 224.19,46.94 T135.24,28.60 46.29,10.28 1.70,1.07 1.50,0.96 1.35,0.78 1.26,0.57 1.24,0.34 1.30,0.11 1.43,-0.08 1.61,-0.23 1.83,-0.30 2.07,-0.31 2.29,-0.24 2.47,-0.10 2.61,0.09 2.67,0.32 2.66,0.55 2.58,0.76 2.43,0.94 2.23,1.07 2.01,1.12 1.78,1.10 1.56,1.00 1.39,0.84 1.28,0.64 1.24,0.41 1.28,0.18 1.38,-0.02 1.55,-0.19 1.76,-0.29 1.99,-0.31 2.11,-0.31 46.59,8.82 135.55,27.08 224.52,45.32 313.49,63.55 358.08,72.70 358.28,72.79 358.45,72.93 358.59,73.11 358.67,73.32 358.71,73.53 358.69,73.75 358.62,73.96 358.50,74.15 358.34,74.30 358.15,74.42 357.94,74.48 357.71,74.49 Z" fill="#ff2133" stroke="#ff2133" stroke-width="2.11" stroke-dasharray="none" stroke-dashoffset="none" stroke-linecap="round" stroke-linejoin="round" pointer-events="stroke"/><g><path d="M 11.96,10.626870044909834 L 0,0 15.18,-5.0452436957237925" fill="none" stroke="#ff2133" stroke-width="4.23" stroke-linecap="round" stroke-linejoin="round" pointer-events="none"/></g></g></g><text font-size="28px" font-family="Caveat Brush" font-weight="normal" line-height="28px" letter-spacing="-0.03em" text-align="left" dominant-baseline="mathematical" alignment-baseline="mathematical" text-anchor="start" transform="translate(150.9, 17.78)" fill="#ff2133" transform-origin="center center"><tspan y="14px" x="4">error
</tspan></text></g><g text-align="center" text-anchor="middle" transform="translate(907.82, 262.80) rotate(0.00, 29.21, 112.87)"><g id="e81b42f8-1cda-4654-220c-823c2e8cccfc_svg" class="tl-centered-g"><defs><mask id="e81b42f8-1cda-4654-220c-823c2e8cccfc_clip"><rect x="-100" y="-100" width="258.43" height="425.74" fill="white"/><rect x="-13.785" y="93.87" width="86" height="38" rx="4" ry="4" fill="black" opacity="1"/></mask></defs><g pointer-events="none" opacity="1" mask="url(#e81b42f8-1cda-4654-220c-823c2e8cccfc_clip)"><path d="M59.36,0.24 Q44.81,56.17 37.54,84.14 T23.02,140.08 8.51,196.03 1.20,224.11 1.07,224.32 0.87,224.47 0.64,224.56 0.39,224.56 0.15,224.49 -0.04,224.34 -0.19,224.14 -0.26,223.90 -0.25,223.65 -0.16,223.42 -0.00,223.23 0.21,223.10 0.45,223.04 0.69,223.06 0.92,223.16 1.10,223.33 1.22,223.55 1.27,223.79 1.23,224.04 1.12,224.26 0.94,224.43 0.72,224.54 0.47,224.57 0.23,224.52 0.02,224.39 -0.15,224.21 -0.24,223.98 -0.26,223.73 -0.25,223.61 6.98,195.63 21.43,139.67 35.87,83.71 50.29,27.74 57.54,-0.35 57.65,-0.55 57.81,-0.72 58.00,-0.85 58.21,-0.93 58.44,-0.95 58.67,-0.92 58.88,-0.84 59.07,-0.71 59.22,-0.53 59.32,-0.33 59.38,-0.10 59.37,0.13 Z" fill="#788492" stroke="#788492" stroke-width="2.11" stroke-dasharray="none" stroke-dashoffset="none" stroke-linecap="round" stroke-linejoin="round" pointer-events="stroke"/><g><path d="M 11.21,214.33030563686825 L 0,225.74 -4.272634523104067,210.32103134992553" fill="none" stroke="#788492" stroke-width="4.23" stroke-linecap="round" stroke-linejoin="round" pointer-events="none"/></g></g></g><text font-size="28px" font-family="Caveat Brush" font-weight="normal" line-height="28px" letter-spacing="-0.03em" text-align="left" dominant-baseline="mathematical" alignment-baseline="mathematical" text-anchor="start" transform="translate(-13.780000000000001, 93.87)" fill="#788492" transform-origin="center center"><tspan y="14px" x="4">Redirect
</tspan></text></g><g text-align="center" text-anchor="middle" transform="translate(144.58, 202.94) rotate(0.00, 94.04, 58.71)"><g id="1cc5aec2-f8ee-4750-3293-51c7781bba90_svg" class="tl-centered-g"><defs><mask id="1cc5aec2-f8ee-4750-3293-51c7781bba90_clip"><rect x="-100" y="-100" width="388.08" height="317.42" fill="white"/><rect x="59.04" y="39.71" width="70" height="38" rx="4" ry="4" fill="black" opacity="1"/></mask></defs><g pointer-events="none" opacity="1" mask="url(#1cc5aec2-f8ee-4750-3293-51c7781bba90_clip)"><path d="M188.58,0.81 Q141.95,29.84 118.64,44.36 T72.02,73.42 25.41,102.48 1.99,117.06 1.75,117.12 1.51,117.09 1.28,116.99 1.10,116.83 0.98,116.61 0.94,116.37 0.98,116.13 1.09,115.91 1.26,115.74 1.48,115.64 1.73,115.60 1.97,115.65 2.18,115.78 2.34,115.96 2.43,116.19 2.45,116.43 2.39,116.67 2.25,116.87 2.06,117.02 1.83,117.11 1.59,117.11 1.35,117.03 1.16,116.89 1.02,116.69 0.95,116.45 0.96,116.21 1.04,115.98 1.20,115.79 1.29,115.71 24.58,101.15 71.16,72.04 117.73,42.91 164.30,13.77 187.68,-0.86 187.90,-0.93 188.12,-0.95 188.35,-0.91 188.56,-0.82 188.74,-0.68 188.88,-0.50 188.98,-0.29 189.02,-0.07 189.01,0.16 188.95,0.38 188.83,0.57 188.67,0.74 Z" fill="#ff2133" stroke="#ff2133" stroke-width="2.11" stroke-dasharray="none" stroke-dashoffset="none" stroke-linecap="round" stroke-linejoin="round" pointer-events="stroke"/><g><path d="M 15.99,116.86805599134696 L 0,117.42 7.51,103.2958686104525" fill="none" stroke="#ff2133" stroke-width="4.23" stroke-linecap="round" stroke-linejoin="round" pointer-events="none"/></g></g></g><text font-size="28px" font-family="Caveat Brush" font-weight="normal" line-height="28px" letter-spacing="-0.03em" text-align="left" dominant-baseline="mathematical" alignment-baseline="mathematical" text-anchor="start" transform="translate(59.040000000000006, 39.71)" fill="#ff2133" transform-origin="center center"><tspan y="14px" x="4">clear()
</tspan></text></g><g text-align="center" text-anchor="middle" transform="translate(408.08, 202.94) rotate(0.00, 3.23, 87.28)"><g id="a47854f0-b88b-402b-13a4-2de78c940ae4_svg" class="tl-centered-g"><defs><mask id="a47854f0-b88b-402b-13a4-2de78c940ae4_clip"><rect x="-100" y="-100" width="206.45" height="374.56" fill="white"/><rect x="-32.275" y="68.28" width="71" height="38" rx="4" ry="4" fill="black" opacity="1"/></mask></defs><g pointer-events="none" opacity="1" mask="url(#a47854f0-b88b-402b-13a4-2de78c940ae4_clip)"><path d="M7.44,0.04 Q5.79,43.17 4.97,64.74 T3.33,107.88 1.71,151.02 0.87,172.72 0.78,172.97 0.61,173.17 0.39,173.31 0.13,173.37 -0.13,173.35 -0.37,173.24 -0.57,173.06 -0.69,172.83 -0.74,172.58 -0.70,172.31 -0.58,172.08 -0.39,171.90 -0.16,171.78 0.10,171.75 0.36,171.80 0.59,171.93 0.76,172.13 0.87,172.37 0.88,172.64 0.82,172.89 0.67,173.11 0.47,173.27 0.22,173.36 -0.04,173.37 -0.29,173.29 -0.51,173.13 -0.66,172.92 -0.73,172.66 -0.75,172.53 0.03,150.96 1.60,107.82 3.15,64.68 4.69,21.53 5.47,-0.16 5.54,-0.38 5.66,-0.59 5.82,-0.76 6.02,-0.89 6.25,-0.97 6.49,-0.99 6.72,-0.95 6.94,-0.86 7.13,-0.71 7.28,-0.53 7.39,-0.32 7.43,-0.08 Z" fill="#ff2133" stroke="#ff2133" stroke-width="2.11" stroke-dasharray="none" stroke-dashoffset="none" stroke-linecap="round" stroke-linejoin="round" pointer-events="stroke"/><g><path d="M 8.50,161.00844176174286 L 0,174.56 -7.482898665833286,160.41764420059832" fill="none" stroke="#ff2133" stroke-width="4.23" stroke-linecap="round" stroke-linejoin="round" pointer-events="none"/></g></g></g><text font-size="28px" font-family="Caveat Brush" font-weight="normal" line-height="28px" letter-spacing="-0.03em" text-align="left" dominant-baseline="mathematical" alignment-baseline="mathematical" text-anchor="start" transform="translate(-32.269999999999996, 68.28)" fill="#ff2133" transform-origin="center center"><tspan y="14px" x="4">retry()
</tspan></text></g></svg>