<svg width="200" height="200" viewBox="0 0 200 200" fill="none" xmlns="http://www.w3.org/2000/svg">
<path d="M23 113.935V143.608L99.8126 187.982V158.309L23 113.935Z" fill="#0079D1"/>
<path d="M23 113.935V143.608L99.8126 187.982V158.309L23 113.935Z" stroke="#121231" stroke-width="6" stroke-linecap="round" stroke-linejoin="round"/>
<path d="M176.625 113.935V143.608L99.8126 187.982V158.309L176.625 113.935Z" fill="#0079D1"/>
<path d="M176.625 113.935V143.608L99.8126 187.982V158.309L176.625 113.935Z" stroke="#121231" stroke-width="6" stroke-linecap="round" stroke-linejoin="round"/>
<path d="M23.0027 113.937L99.8105 158.306L176.623 113.937L99.8105 71.3879L23.0027 113.937Z" fill="#0079D1"/>
<path d="M23.0027 113.937L99.8105 158.306L176.623 113.937L99.8105 71.3879L23.0027 113.937Z" stroke="#121231" stroke-width="6" stroke-linecap="round" stroke-linejoin="round"/>
<path d="M86.0982 127.922V138.38C86.0982 142.634 91.6381 146.084 98.4775 146.084C105.317 146.084 110.861 142.634 110.861 138.38V127.922H86.0982Z" fill="#0079D1"/>
<path d="M86.0982 127.922V138.38C86.0982 142.634 91.6381 146.084 98.4775 146.084C105.317 146.084 110.861 142.634 110.861 138.38V127.922H86.0982Z" stroke="#121231" stroke-width="6" stroke-linecap="round" stroke-linejoin="round"/>
<path d="M110.861 127.925C110.861 132.179 105.317 135.629 98.4798 135.629C91.6405 135.629 86.0935 132.179 86.0935 127.925C86.0935 123.67 91.6405 120.221 98.4798 120.221C105.317 120.221 110.861 123.67 110.861 127.925Z" fill="#0079D1"/>
<path d="M110.861 127.925C110.861 132.179 105.317 135.629 98.4798 135.629C91.6405 135.629 86.0935 132.179 86.0935 127.925C86.0935 123.67 91.6405 120.221 98.4798 120.221C105.317 120.221 110.861 123.67 110.861 127.925Z" stroke="#121231" stroke-width="6" stroke-linecap="round" stroke-linejoin="round"/>
<path d="M125.837 105.896V116.351C125.837 120.606 131.382 124.055 138.221 124.055C145.058 124.055 150.6 120.606 150.6 116.351V105.896H125.837Z" fill="#0079D1"/>
<path d="M125.837 105.896V116.351C125.837 120.606 131.382 124.055 138.221 124.055C145.058 124.055 150.6 120.606 150.6 116.351V105.896H125.837Z" stroke="#121231" stroke-width="6" stroke-linecap="round" stroke-linejoin="round"/>
<path d="M150.603 105.893C150.603 110.148 145.058 113.598 138.221 113.598C131.382 113.598 125.835 110.148 125.835 105.893C125.835 101.639 131.382 98.1894 138.221 98.1894C145.058 98.1894 150.603 101.639 150.603 105.893Z" fill="#0079D1"/>
<path d="M150.603 105.893C150.603 110.148 145.058 113.598 138.221 113.598C131.382 113.598 125.835 110.148 125.835 105.893C125.835 101.639 131.382 98.1894 138.221 98.1894C145.058 98.1894 150.603 101.639 150.603 105.893Z" stroke="#121231" stroke-width="6" stroke-linecap="round" stroke-linejoin="round"/>
<path d="M49.3953 105.896V116.351C49.3953 120.606 54.9399 124.055 61.7769 124.055C68.6162 124.055 74.1585 120.606 74.1585 116.351V105.896H49.3953Z" fill="#0079D1"/>
<path d="M49.3953 105.896V116.351C49.3953 120.606 54.9399 124.055 61.7769 124.055C68.6162 124.055 74.1585 120.606 74.1585 116.351V105.896H49.3953Z" stroke="#121231" stroke-width="6" stroke-linecap="round" stroke-linejoin="round"/>
<path d="M74.1609 105.893C74.1609 110.148 68.6186 113.598 61.7792 113.598C54.9399 113.598 49.3976 110.148 49.3976 105.893C49.3976 101.639 54.9399 98.1894 61.7792 98.1894C68.6186 98.1894 74.1609 101.639 74.1609 105.893Z" fill="#0079D1"/>
<path d="M74.1609 105.893C74.1609 110.148 68.6186 113.598 61.7792 113.598C54.9399 113.598 49.3976 110.148 49.3976 105.893C49.3976 101.639 54.9399 98.1894 61.7792 98.1894C68.6186 98.1894 74.1609 101.639 74.1609 105.893Z" stroke="#121231" stroke-width="6" stroke-linecap="round" stroke-linejoin="round"/>
<path d="M89.139 83.8669V94.3219C89.139 98.579 94.6789 102.026 101.518 102.026C108.358 102.026 113.905 98.579 113.905 94.3219V83.8669H89.139Z" fill="#0079D1"/>
<path d="M89.139 83.8669V94.3219C89.139 98.579 94.6789 102.026 101.518 102.026C108.358 102.026 113.905 98.579 113.905 94.3219V83.8669H89.139Z" stroke="#121231" stroke-width="6" stroke-linecap="round" stroke-linejoin="round"/>
<path d="M113.905 83.8646C113.905 88.1216 108.36 91.5686 101.523 91.5686C94.6836 91.5686 89.1366 88.1216 89.1366 83.8646C89.1366 79.6099 94.6836 76.1605 101.523 76.1605C108.36 76.1605 113.905 79.6099 113.905 83.8646Z" fill="#0079D1"/>
<path d="M113.905 83.8646C113.905 88.1216 108.36 91.5686 101.523 91.5686C94.6836 91.5686 89.1366 88.1216 89.1366 83.8646C89.1366 79.6099 94.6836 76.1605 101.523 76.1605C108.36 76.1605 113.905 79.6099 113.905 83.8646Z" stroke="#121231" stroke-width="6" stroke-linecap="round" stroke-linejoin="round"/>

<path d="M23 84.2405V113.919L99.8126 158.288V128.614L23 84.2405Z" fill="#D4F0FF"/>
<path d="M23 84.2405V113.919L99.8126 158.288V128.614L23 84.2405Z" stroke="#121231" stroke-width="6" stroke-linecap="round" stroke-linejoin="round"/>
<path d="M176.625 84.2405V113.919L99.8126 158.288V128.614L176.625 84.2405Z" fill="#D4F0FF"/>
<path d="M176.625 84.2405V113.919L99.8126 158.288V128.614L176.625 84.2405Z" stroke="#121231" stroke-width="6" stroke-linecap="round" stroke-linejoin="round"/>
<path d="M23.0027 84.2429L99.8105 128.612L176.623 84.2429L99.8105 41.6936L23.0027 84.2429Z" fill="#D4F0FF"/>
<path d="M23.0027 84.2429L99.8105 128.612L176.623 84.2429L99.8105 41.6936L23.0027 84.2429Z" stroke="#121231" stroke-width="6" stroke-linecap="round" stroke-linejoin="round"/>
<path d="M86.0982 97.0212V107.476C86.0982 111.731 91.6381 115.183 98.4775 115.183C105.317 115.183 110.861 111.731 110.861 107.476V97.0212H86.0982Z" fill="#D4F0FF"/>
<path d="M86.0982 97.0212V107.476C86.0982 111.731 91.6381 115.183 98.4775 115.183C105.317 115.183 110.861 111.731 110.861 107.476V97.0212H86.0982Z" stroke="#121231" stroke-width="6" stroke-linecap="round" stroke-linejoin="round"/>
<path d="M110.861 97.0212C110.861 101.276 105.317 104.725 98.4798 104.725C91.6405 104.725 86.0935 101.276 86.0935 97.0212C86.0935 92.7641 91.6405 89.3171 98.4798 89.3171C105.317 89.3171 110.861 92.7641 110.861 97.0212Z" fill="#D4F0FF"/>
<path d="M110.861 97.0212C110.861 101.276 105.317 104.725 98.4798 104.725C91.6405 104.725 86.0935 101.276 86.0935 97.0212C86.0935 92.7641 91.6405 89.3171 98.4798 89.3171C105.317 89.3171 110.861 92.7641 110.861 97.0212Z" stroke="#121231" stroke-width="6" stroke-linecap="round" stroke-linejoin="round"/>
<path d="M125.837 74.9899V85.4473C125.837 89.7044 131.382 93.1537 138.221 93.1537C145.058 93.1537 150.6 89.7044 150.6 85.4473V74.9899H125.837Z" fill="#D4F0FF"/>
<path d="M125.837 74.9899V85.4473C125.837 89.7044 131.382 93.1537 138.221 93.1537C145.058 93.1537 150.6 89.7044 150.6 85.4473V74.9899H125.837Z" stroke="#121231" stroke-width="6" stroke-linecap="round" stroke-linejoin="round"/>
<path d="M150.603 74.9923C150.603 79.247 145.058 82.6964 138.221 82.6964C131.382 82.6964 125.835 79.247 125.835 74.9923C125.835 70.7352 131.382 67.2882 138.221 67.2882C145.058 67.2882 150.603 70.7352 150.603 74.9923Z" fill="#D4F0FF"/>
<path d="M150.603 74.9923C150.603 79.247 145.058 82.6964 138.221 82.6964C131.382 82.6964 125.835 79.247 125.835 74.9923C125.835 70.7352 131.382 67.2882 138.221 67.2882C145.058 67.2882 150.603 70.7352 150.603 74.9923Z" stroke="#121231" stroke-width="6" stroke-linecap="round" stroke-linejoin="round"/>
<path d="M49.3953 74.9899V85.4473C49.3953 89.7044 54.9399 93.1537 61.7769 93.1537C68.6162 93.1537 74.1585 89.7044 74.1585 85.4473V74.9899H49.3953Z" fill="#D4F0FF"/>
<path d="M49.3953 74.9899V85.4473C49.3953 89.7044 54.9399 93.1537 61.7769 93.1537C68.6162 93.1537 74.1585 89.7044 74.1585 85.4473V74.9899H49.3953Z" stroke="#121231" stroke-width="6" stroke-linecap="round" stroke-linejoin="round"/>
<path d="M74.1609 74.9923C74.1609 79.247 68.6186 82.6964 61.7792 82.6964C54.9399 82.6964 49.3976 79.247 49.3976 74.9923C49.3976 70.7352 54.9399 67.2882 61.7792 67.2882C68.6186 67.2882 74.1609 70.7352 74.1609 74.9923Z" fill="#D4F0FF"/>
<path d="M74.1609 74.9923C74.1609 79.247 68.6186 82.6964 61.7792 82.6964C54.9399 82.6964 49.3976 79.247 49.3976 74.9923C49.3976 70.7352 54.9399 67.2882 61.7792 67.2882C68.6186 67.2882 74.1609 70.7352 74.1609 74.9923Z" stroke="#121231" stroke-width="6" stroke-linecap="round" stroke-linejoin="round"/>
<path d="M89.139 52.9634V63.4208C89.139 67.6779 94.6789 71.1272 101.518 71.1272C108.358 71.1272 113.905 67.6779 113.905 63.4208V52.9634H89.139Z" fill="#D4F0FF"/>
<path d="M89.139 52.9634V63.4208C89.139 67.6779 94.6789 71.1272 101.518 71.1272C108.358 71.1272 113.905 67.6779 113.905 63.4208V52.9634H89.139Z" stroke="#121231" stroke-width="6" stroke-linecap="round" stroke-linejoin="round"/>
<path d="M113.905 52.9634C113.905 57.2205 108.36 60.6675 101.523 60.6675C94.6836 60.6675 89.1366 57.2205 89.1366 52.9634C89.1366 48.7087 94.6836 45.2593 101.523 45.2593C108.36 45.2593 113.905 48.7087 113.905 52.9634Z" fill="#D4F0FF"/>
<path d="M113.905 52.9634C113.905 57.2205 108.36 60.6675 101.523 60.6675C94.6836 60.6675 89.1366 57.2205 89.1366 52.9634C89.1366 48.7087 94.6836 45.2593 101.523 45.2593C108.36 45.2593 113.905 48.7087 113.905 52.9634Z" stroke="#121231" stroke-width="6" stroke-linecap="round" stroke-linejoin="round"/>


<path d="M23 54.5469V84.2205L99.8126 128.594V98.9207L23 54.5469Z" fill="#74CDFF"/>
<path d="M23 54.5469V84.2205L99.8126 128.594V98.9207L23 54.5469Z" stroke="#121231" stroke-width="6" stroke-linecap="round" stroke-linejoin="round"/>
<path d="M176.625 54.5469V84.2205L99.8126 128.594V98.9207L176.625 54.5469Z" fill="#74CDFF"/>
<path d="M176.625 54.5469V84.2205L99.8126 128.594V98.9207L176.625 54.5469Z" stroke="#121231" stroke-width="6" stroke-linecap="round" stroke-linejoin="round"/>
<path d="M23.0027 54.5493L99.8105 98.9184L176.623 54.5493L99.8105 12L23.0027 54.5493Z" fill="#74CDFF"/>
<path d="M23.0027 54.5493L99.8105 98.9184L176.623 54.5493L99.8105 12L23.0027 54.5493Z" stroke="#121231" stroke-width="6" stroke-linecap="round" stroke-linejoin="round"/>
<path d="M124.019 38.0077C125.404 38.2531 126.186 39.3743 125.764 40.5117C125.342 41.6487 123.876 42.3718 122.489 42.1264C118.261 41.3776 111.602 45.6794 103.047 55.5896C93.2912 66.89 85.108 72.345 77.9294 71.5223C76.5157 71.3606 75.6297 70.2959 75.9495 69.1435C76.2694 67.9919 77.6741 67.1889 79.0878 67.3509C83.457 67.8517 90.2218 63.3421 98.8133 53.39C108.605 42.0477 116.829 36.7342 124.019 38.0077Z" fill="#74CDFF"/>
<path d="M124.019 38.0077C125.404 38.2531 126.186 39.3743 125.764 40.5117C125.342 41.6487 123.876 42.3718 122.489 42.1264C118.261 41.3776 111.602 45.6794 103.047 55.5896C93.2912 66.89 85.108 72.345 77.9294 71.5223C76.5157 71.3606 75.6297 70.2959 75.9495 69.1435C76.2694 67.9919 77.6741 67.1889 79.0878 67.3509C83.457 67.8517 90.2218 63.3421 98.8133 53.39C108.605 42.0477 116.829 36.7342 124.019 38.0077Z" stroke="#74CDFF" stroke-width="8.80956" stroke-miterlimit="10"/>
</svg>
